<?xml version="1.0" encoding="UTF-8" standalone="no"?>
<svg
   width="876"
   height="762"
   version="1.1"
   id="svg13"
   sodipodi:docname="iphone-feature-bg-03.svg"
   inkscape:version="1.3.2 (091e20ef0f, 2023-11-25, custom)"
   xmlns:inkscape="http://www.inkscape.org/namespaces/inkscape"
   xmlns:sodipodi="http://sodipodi.sourceforge.net/DTD/sodipodi-0.dtd"
   xmlns="http://www.w3.org/2000/svg"
   xmlns:svg="http://www.w3.org/2000/svg">
  <sodipodi:namedview
     id="namedview13"
     pagecolor="#505050"
     bordercolor="#ffffff"
     borderopacity="1"
     inkscape:showpageshadow="0"
     inkscape:pageopacity="0"
     inkscape:pagecheckerboard="1"
     inkscape:deskcolor="#505050"
     inkscape:zoom="0.88013699"
     inkscape:cx="438"
     inkscape:cy="380.62257"
     inkscape:window-width="1920"
     inkscape:window-height="1008"
     inkscape:window-x="0"
     inkscape:window-y="0"
     inkscape:window-maximized="1"
     inkscape:current-layer="svg13" />
  <defs
     id="defs8">
    <linearGradient
       x1="50%"
       y1="0%"
       x2="50%"
       y2="100%"
       id="b">
      <stop
         stop-color="#4234F8"
         offset="0"
         id="stop1"
         style="stop-color:#e6ee9c;stop-opacity:1;" />
      <stop
         stop-color="#4234F8"
         stop-opacity="0"
         offset="1"
         id="stop2"
         style="stop-color:#e6ee9c;stop-opacity:0;" />
    </linearGradient>
    <radialGradient
       cx="33.3%"
       cy="43.394%"
       fx="33.3%"
       fy="43.394%"
       r="58.178%"
       gradientTransform="scale(.90193 1) rotate(-74.113 .351 .41)"
       id="c">
      <stop
         stop-color="#FF6C50"
         stop-opacity="0"
         offset="0"
         id="stop3"
         style="stop-color:#b39ddb;stop-opacity:0;" />
      <stop
         stop-color="#FF6C50"
         stop-opacity=".64"
         offset="0.51712"
         id="stop4"
         style="stop-color:#b39ddb;stop-opacity:0.63921571;" />
      <stop
         stop-color="#FF6C50"
         stop-opacity=".24"
         offset="1"
         id="stop5"
         style="stop-color:#b39ddb;stop-opacity:0.23921569;" />
    </radialGradient>
    <linearGradient
       x1="50%"
       y1="0%"
       x2="50%"
       y2="100%"
       id="d">
      <stop
         stop-color="#4234F8"
         stop-opacity=".8"
         offset="0"
         id="stop6"
         style="stop-color:#e6ee9c;stop-opacity:0.80000001;" />
      <stop
         stop-color="#4234F8"
         stop-opacity="0"
         offset="1"
         id="stop7"
         style="stop-color:#e6ee9c;stop-opacity:0;" />
    </linearGradient>
    <filter
       id="a"
       x="0"
       y="0"
       width="1"
       height="1">
      <feTurbulence
         type="fractalNoise"
         numOctaves="2"
         baseFrequency=".3"
         result="turb"
         id="feTurbulence7" />
      <feComposite
         in="turb"
         operator="arithmetic"
         k1=".1"
         k2=".1"
         k3=".1"
         k4=".1"
         result="result1"
         id="feComposite7" />
      <feComposite
         operator="in"
         in="result1"
         in2="SourceGraphic"
         result="finalFilter"
         id="feComposite8" />
      <feBlend
         mode="multiply"
         in="finalFilter"
         in2="SourceGraphic"
         id="feBlend8" />
    </filter>
  </defs>
  <g
     fill="none"
     fill-rule="evenodd"
     filter="url(#a)"
     id="g13">
    <path
       d="M173.286 346.278c37.75 237.363 436.799-108.302 173.285-173.139C83.058 108.302 268.99 0 173.286 0S0 77.517 0 173.14c0 95.621 135.536-64.225 173.286 173.138z"
       transform="translate(219 194)"
       fill="url(#b)"
       id="path8" />
    <path
       d="M216 343c185-39.91 172-77.007 172-172s-115 7-172-123.102C159-82.203-100.836 90.254 44 171c144.836 80.746-13 211.91 172 172z"
       transform="translate(56)"
       fill="url(#c)"
       id="path9" />
    <path
       fill="#C1C3DA"
       d="M349.608 16l-3.624 1.667-.984 3.53 1.158 3.36 3.45 1.443 3.249-1.639L355 21.196l-1.62-3.674z"
       id="path10" />
    <path
       fill-opacity=".64"
       fill="#FF6C50"
       d="M351.304 55l-1.812.833-.492 1.765.579 1.68 1.725.722 1.624-.82L354 57.599l-.81-1.837z"
       id="path11"
       style="fill:#b39ddb;fill-opacity:0.63921571" />
    <path
       fill-opacity=".64"
       fill="#268DF7"
       d="M323.686 37l-2.899 1.334-.787 2.823.926 2.688 2.76 1.155 2.6-1.31L328 41.156l-1.295-2.94z"
       id="path12"
       style="fill:#e6ee9c;fill-opacity:0.63921571" />
    <path
       d="M392.286 540.278c37.75 237.363 436.799-108.302 173.285-173.139C302.058 302.302 487.99 194 392.286 194S219 271.517 219 367.14c0 95.621 135.536-64.225 173.286 173.138z"
       fill="url(#d)"
       transform="matrix(-1 0 0 1 874 0)"
       id="path13" />
  </g>
</svg>
